<svg width="500" height="500" viewBox="0 0 500 500" fill="none" xmlns="http://www.w3.org/2000/svg">
<path fill-rule="evenodd" clip-rule="evenodd" d="M305.92 151.123L250 0L193.468 152.776L111.041 115.142L148.51 195.046L0 250L150.742 305.78L113.441 388.527L194.81 350.85L250 500L305.183 350.87L386.837 388.152L348.367 306.109L500 250L348.713 194.019L384.438 114.766L305.92 151.123Z" fill="#D791D8"/>
<path d="M386.121 252.669C386.121 329.321 325.178 391.459 250 391.459C174.822 391.459 113.879 329.321 113.879 252.669C113.879 176.017 174.822 113.879 250 113.879C325.178 113.879 386.121 176.017 386.121 252.669Z" fill="#D791D8"/>
<path d="M242.692 219.772C237.533 216.936 233.832 216.274 231.25 217.472C228.653 218.678 227.431 221.648 226.913 225.4C226.39 229.182 226.557 233.953 226.915 239.036C227.056 241.032 227.226 243.073 227.397 245.128C227.664 248.332 227.933 251.568 228.098 254.713C228.368 259.866 228.352 264.696 227.587 268.593C226.821 272.499 225.327 275.354 222.741 276.73C220.15 278.108 216.297 278.089 210.594 275.832C204.904 273.579 197.472 269.136 187.809 261.835C175.065 251.435 171.43 237.279 174.589 223.646C177.754 209.991 187.746 196.844 202.292 188.576C216.828 180.314 235.906 176.93 257.229 182.802C278.547 188.672 302.14 203.804 325.675 232.623C331.87 243.168 333.588 253.364 332.081 262.999C330.571 272.654 325.816 281.782 319.006 290.156C305.379 306.911 283.592 320.56 263.481 329.236C253.43 333.572 243.817 336.658 235.876 338.268C231.905 339.074 228.362 339.508 225.398 339.548C222.425 339.588 220.078 339.231 218.468 338.491C216.884 337.763 216.053 336.69 215.963 335.247C215.87 333.747 216.569 331.737 218.358 329.158C221.925 324.013 229.62 316.893 242.741 307.566C259.207 295.862 270.052 285.958 276.395 277.317C282.744 268.668 284.619 261.231 283.032 254.507C281.451 247.809 276.46 241.943 269.361 236.362C262.257 230.776 252.971 225.421 242.692 219.772Z" fill="white" stroke="white"/>
</svg>
